<svg xmlns="http://www.w3.org/2000/svg" xmlns:xlink="http://www.w3.org/1999/xlink" viewBox="0 0 80.45 89.3"><defs><style>.cls-1{fill:url(#linear-gradient);}</style><linearGradient id="linear-gradient" x1="40.22" y1="-5.12" x2="40.22" y2="121.46" gradientUnits="userSpaceOnUse"><stop offset="0" stop-color="#16d6b1"/><stop offset="1" stop-color="#079e81"/></linearGradient></defs><g id="Layer_2" data-name="Layer 2"><g id="sphere"><path class="cls-1" d="M79.24,22.06a9.08,9.08,0,0,0-3.3-3.3L45.54,1.21a9,9,0,0,0-9,0l-32,18.48A9,9,0,0,0,0,27.5V62.6a9,9,0,0,0,4.73,7.94l29.09,16.8V73L14.37,61.76v-15a5,5,0,1,1,3.52,0V59.73l15.93,9.21V58.69L27.48,55V31.86a5,5,0,1,1,3.52,0V53l6.34,3.66V89A7.66,7.66,0,0,0,41.56,89V21a5,5,0,1,1,3.51,0V36.31l8.17-4.72a5.23,5.23,0,0,1-.06-.57,5,5,0,1,1,5,5,4.93,4.93,0,0,1-3.33-1.3l-9.78,5.65V66.81L62.75,56.59V51.73a5,5,0,1,1,3.52,0v6.94L45.07,70.88v16.4l30.84-17.8c4.38-2.54,4.54-5.93,4.54-7.82V26.83A9.16,9.16,0,0,0,79.24,22.06Z"/></g></g></svg>